<svg xmlns="http://www.w3.org/2000/svg" version="1.1" xmlns:xlink="http://www.w3.org/1999/xlink" xmlns:svgjs="http://svgjs.com/svgjs" width="1920" height="1080" preserveAspectRatio="none" viewBox="0 0 1920 1080"><g mask="url(&quot;#SvgjsMask1168&quot;)" fill="none"><path d="M1356 555L775 1136" stroke-width="6" stroke="url(#SvgjsLinearGradient1169)" stroke-linecap="round" class="BottomLeft"></path><path d="M1700 580L2460 -180" stroke-width="8" stroke="url(#SvgjsLinearGradient1169)" stroke-linecap="round" class="BottomLeft"></path><path d="M141 962L-622 1725" stroke-width="6" stroke="url(#SvgjsLinearGradient1169)" stroke-linecap="round" class="BottomLeft"></path><path d="M881 339L1404 -184" stroke-width="10" stroke="url(#SvgjsLinearGradient1170)" stroke-linecap="round" class="TopRight"></path><path d="M437 331L106 662" stroke-width="10" stroke="url(#SvgjsLinearGradient1169)" stroke-linecap="round" class="BottomLeft"></path><path d="M1473 131L1120 484" stroke-width="6" stroke="url(#SvgjsLinearGradient1169)" stroke-linecap="round" class="BottomLeft"></path><path d="M1490 179L1824 -155" stroke-width="10" stroke="url(#SvgjsLinearGradient1170)" stroke-linecap="round" class="TopRight"></path><path d="M1468 304L751 1021" stroke-width="8" stroke="url(#SvgjsLinearGradient1170)" stroke-linecap="round" class="TopRight"></path><path d="M184 257L868 -427" stroke-width="8" stroke="url(#SvgjsLinearGradient1170)" stroke-linecap="round" class="TopRight"></path><path d="M1003 541L1439 105" stroke-width="8" stroke="url(#SvgjsLinearGradient1169)" stroke-linecap="round" class="BottomLeft"></path><path d="M1204 1080L1643 641" stroke-width="10" stroke="url(#SvgjsLinearGradient1170)" stroke-linecap="round" class="TopRight"></path><path d="M134 412L-460 1006" stroke-width="6" stroke="url(#SvgjsLinearGradient1169)" stroke-linecap="round" class="BottomLeft"></path><path d="M713 315L1377 -349" stroke-width="6" stroke="url(#SvgjsLinearGradient1170)" stroke-linecap="round" class="TopRight"></path><path d="M1334 683L631 1386" stroke-width="8" stroke="url(#SvgjsLinearGradient1169)" stroke-linecap="round" class="BottomLeft"></path><path d="M53 149L-459 661" stroke-width="6" stroke="url(#SvgjsLinearGradient1169)" stroke-linecap="round" class="BottomLeft"></path><path d="M731 1003L401 1333" stroke-width="8" stroke="url(#SvgjsLinearGradient1170)" stroke-linecap="round" class="TopRight"></path><path d="M1466 486L1183 769" stroke-width="8" stroke="url(#SvgjsLinearGradient1169)" stroke-linecap="round" class="BottomLeft"></path><path d="M613 587L1301 -101" stroke-width="8" stroke="url(#SvgjsLinearGradient1170)" stroke-linecap="round" class="TopRight"></path><path d="M1697 298L1281 714" stroke-width="10" stroke="url(#SvgjsLinearGradient1170)" stroke-linecap="round" class="TopRight"></path><path d="M185 497L934 -252" stroke-width="10" stroke="url(#SvgjsLinearGradient1169)" stroke-linecap="round" class="BottomLeft"></path><path d="M1669 90L1396 363" stroke-width="8" stroke="url(#SvgjsLinearGradient1170)" stroke-linecap="round" class="TopRight"></path><path d="M385 802L1131 56" stroke-width="10" stroke="url(#SvgjsLinearGradient1169)" stroke-linecap="round" class="BottomLeft"></path><path d="M963 539L506 996" stroke-width="6" stroke="url(#SvgjsLinearGradient1170)" stroke-linecap="round" class="TopRight"></path><path d="M1719 1037L1280 1476" stroke-width="6" stroke="url(#SvgjsLinearGradient1170)" stroke-linecap="round" class="TopRight"></path><path d="M1696 898L1396 1198" stroke-width="6" stroke="url(#SvgjsLinearGradient1169)" stroke-linecap="round" class="BottomLeft"></path><path d="M565 818L1043 340" stroke-width="8" stroke="url(#SvgjsLinearGradient1170)" stroke-linecap="round" class="TopRight"></path><path d="M1187 806L860 1133" stroke-width="10" stroke="url(#SvgjsLinearGradient1169)" stroke-linecap="round" class="BottomLeft"></path><path d="M751 211L51 911" stroke-width="6" stroke="url(#SvgjsLinearGradient1170)" stroke-linecap="round" class="TopRight"></path><path d="M1465 25L1051 439" stroke-width="10" stroke="url(#SvgjsLinearGradient1169)" stroke-linecap="round" class="BottomLeft"></path><path d="M830 64L1123 -229" stroke-width="8" stroke="url(#SvgjsLinearGradient1169)" stroke-linecap="round" class="BottomLeft"></path><path d="M851 929L349 1431" stroke-width="8" stroke="url(#SvgjsLinearGradient1170)" stroke-linecap="round" class="TopRight"></path><path d="M127 100L855 -628" stroke-width="6" stroke="url(#SvgjsLinearGradient1169)" stroke-linecap="round" class="BottomLeft"></path><path d="M1743 585L2516 -188" stroke-width="10" stroke="url(#SvgjsLinearGradient1170)" stroke-linecap="round" class="TopRight"></path><path d="M615 757L1381 -9" stroke-width="10" stroke="url(#SvgjsLinearGradient1169)" stroke-linecap="round" class="BottomLeft"></path><path d="M662 75L1078 -341" stroke-width="6" stroke="url(#SvgjsLinearGradient1170)" stroke-linecap="round" class="TopRight"></path><path d="M906 342L1604 -356" stroke-width="10" stroke="url(#SvgjsLinearGradient1170)" stroke-linecap="round" class="TopRight"></path><path d="M869 727L1197 399" stroke-width="8" stroke="url(#SvgjsLinearGradient1170)" stroke-linecap="round" class="TopRight"></path><path d="M1677 1059L886 1850" stroke-width="10" stroke="url(#SvgjsLinearGradient1169)" stroke-linecap="round" class="BottomLeft"></path><path d="M1470 134L1827 -223" stroke-width="8" stroke="url(#SvgjsLinearGradient1170)" stroke-linecap="round" class="TopRight"></path><path d="M1157 659L797 1019" stroke-width="6" stroke="url(#SvgjsLinearGradient1169)" stroke-linecap="round" class="BottomLeft"></path><path d="M603 277L1199 -319" stroke-width="8" stroke="url(#SvgjsLinearGradient1170)" stroke-linecap="round" class="TopRight"></path><path d="M294 1003L-6 1303" stroke-width="6" stroke="url(#SvgjsLinearGradient1170)" stroke-linecap="round" class="TopRight"></path><path d="M506 222L988 -260" stroke-width="6" stroke="url(#SvgjsLinearGradient1169)" stroke-linecap="round" class="BottomLeft"></path><path d="M1374 757L730 1401" stroke-width="6" stroke="url(#SvgjsLinearGradient1170)" stroke-linecap="round" class="TopRight"></path><path d="M907 774L258 1423" stroke-width="6" stroke="url(#SvgjsLinearGradient1170)" stroke-linecap="round" class="TopRight"></path><path d="M659 195L145 709" stroke-width="8" stroke="url(#SvgjsLinearGradient1169)" stroke-linecap="round" class="BottomLeft"></path><path d="M655 600L1434 -179" stroke-width="6" stroke="url(#SvgjsLinearGradient1169)" stroke-linecap="round" class="BottomLeft"></path><path d="M551 64L-162 777" stroke-width="10" stroke="url(#SvgjsLinearGradient1169)" stroke-linecap="round" class="BottomLeft"></path><path d="M462 1080L923 619" stroke-width="10" stroke="url(#SvgjsLinearGradient1170)" stroke-linecap="round" class="TopRight"></path><path d="M469 677L-105 1251" stroke-width="8" stroke="url(#SvgjsLinearGradient1169)" stroke-linecap="round" class="BottomLeft"></path><path d="M41 721L574 188" stroke-width="8" stroke="url(#SvgjsLinearGradient1170)" stroke-linecap="round" class="TopRight"></path><path d="M1488 1010L2259 239" stroke-width="6" stroke="url(#SvgjsLinearGradient1169)" stroke-linecap="round" class="BottomLeft"></path><path d="M760 564L485 839" stroke-width="10" stroke="url(#SvgjsLinearGradient1169)" stroke-linecap="round" class="BottomLeft"></path><path d="M312 630L-299 1241" stroke-width="10" stroke="url(#SvgjsLinearGradient1169)" stroke-linecap="round" class="BottomLeft"></path><path d="M937 69L1536 -530" stroke-width="8" stroke="url(#SvgjsLinearGradient1169)" stroke-linecap="round" class="BottomLeft"></path><path d="M149 1040L862 327" stroke-width="8" stroke="url(#SvgjsLinearGradient1169)" stroke-linecap="round" class="BottomLeft"></path></g><defs><mask id="SvgjsMask1168"><rect width="1920" height="1080" fill="#ffffff"></rect></mask><linearGradient x1="100%" y1="0%" x2="0%" y2="100%" id="SvgjsLinearGradient1169"><stop stop-color="rgba(0, 150, 136, 0)" offset="0"></stop><stop stop-color="rgba(0, 150, 136, 1)" offset="1"></stop></linearGradient><linearGradient x1="0%" y1="100%" x2="100%" y2="0%" id="SvgjsLinearGradient1170"><stop stop-color="rgba(0, 150, 136, 0)" offset="0"></stop><stop stop-color="rgba(0, 150, 136, 1)" offset="1"></stop></linearGradient></defs></svg>